# Blender v2.83.5 OBJ File: 'INŻ_tiles.blend'
# www.blender.org
mtllib building_I.mtl
o building_I_Plane.012
v -0.500000 2.000000 1.500000
v 0.500000 2.000000 1.500000
v 0.500000 2.000000 -1.500000
v -0.500000 2.000000 -1.500000
v 0.500000 -2.000000 -1.500000
v -0.500000 -2.000000 -1.500000
v -0.500000 -2.000000 1.500000
v 0.500000 -2.000000 1.500000
v -1.500000 2.000000 -0.500000
v -1.500000 2.000000 0.500000
v 1.500000 2.000000 0.500000
v 1.500000 2.000000 -0.500000
v 1.500000 -2.000000 0.500000
v 1.500000 -2.000000 -0.500000
v -1.500000 -2.000000 -0.500000
v -1.500000 -2.000000 0.500000
v 0.500000 -0.366667 -1.500000
v 0.500000 0.966666 -1.500000
v -0.500000 -0.366667 -1.500000
v -0.500000 0.966666 -1.500000
v -0.500000 -0.366667 1.500000
v -0.500000 0.966666 1.500000
v 0.500000 -0.366667 1.500000
v 0.500000 0.966666 1.500000
v 1.500000 -0.366667 0.500000
v 1.500000 0.966666 0.500000
v 1.500000 -0.366667 -0.500000
v 1.500000 0.966666 -0.500000
v -1.500000 -0.366667 -0.500000
v -1.500000 0.966666 -0.500000
v -1.500000 -0.366667 0.500000
v -1.500000 0.966666 0.500000
v 0.450000 -0.300000 -1.350000
v 0.450000 0.900000 -1.350000
v -0.450000 -0.300000 -1.350000
v -0.450000 0.900000 -1.350000
v -0.450000 -0.300000 1.350000
v -0.450000 0.900000 1.350000
v 0.450000 -0.300000 1.350000
v 0.450000 0.900000 1.350000
v 1.350000 -0.300000 0.450000
v 1.350000 0.900000 0.450000
v 1.350000 -0.300000 -0.450000
v 1.350000 0.900000 -0.450000
v -1.350000 -0.300000 -0.450000
v -1.350000 0.900000 -0.450000
v -1.350000 -0.300000 0.450000
v -1.350000 0.900000 0.450000
v -0.753940 -0.454113 1.498623
v -0.712783 -0.454113 1.644732
v -0.753940 -0.454113 -1.498623
v -0.753940 -0.625969 -1.498624
v -0.753940 -0.625969 1.498623
v 0.753940 -0.454113 1.498623
v 0.753940 -0.454113 -1.498624
v 0.753940 -0.625969 -1.498624
v -0.712783 -0.625969 1.644731
v 0.753940 -0.625969 1.498623
v -0.712783 -0.454113 -1.644729
v -0.712783 -0.625969 -1.644729
v 0.712783 -0.625969 -1.644729
v 0.712783 -0.454113 -1.644729
v 0.712783 -0.454113 1.644731
v 0.712783 -0.625969 1.644731
v 1.498623 -0.454113 0.753940
v 1.644732 -0.454113 0.712783
v -1.498623 -0.454113 0.753940
v -1.498624 -0.625969 0.753940
v 1.498623 -0.625969 0.753940
v 1.498623 -0.454113 -0.753940
v -1.498624 -0.454113 -0.753940
v -1.498624 -0.625969 -0.753940
v 1.644732 -0.625969 0.712783
v 1.498623 -0.625969 -0.753940
v -1.644729 -0.454113 0.712783
v -1.644729 -0.625969 0.712783
v -1.644730 -0.625969 -0.712783
v -1.644730 -0.454113 -0.712783
v 1.644731 -0.454113 -0.712783
v 1.644731 -0.625969 -0.712783
v -1.500000 2.000000 1.371068
v -1.371068 2.000000 1.500000
v -1.490185 2.000000 1.420408
v -1.462236 2.000000 1.462236
v -1.420408 2.000000 1.490185
v 1.371068 2.000000 1.500000
v 1.500000 2.000000 1.371068
v 1.420408 2.000000 1.490185
v 1.462236 2.000000 1.462236
v 1.490185 2.000000 1.420408
v -1.371068 2.000000 -1.500000
v -1.500000 2.000000 -1.371068
v -1.420408 2.000000 -1.490185
v -1.462236 2.000000 -1.462236
v -1.490185 2.000000 -1.420408
v 1.500000 2.000000 -1.371068
v 1.371068 2.000000 -1.500000
v 1.490185 2.000000 -1.420408
v 1.462236 2.000000 -1.462236
v 1.420408 2.000000 -1.490185
v 1.371068 -2.000000 -1.500000
v 1.500000 -2.000000 -1.371068
v 1.420408 -2.000000 -1.490185
v 1.462236 -2.000000 -1.462236
v 1.490185 -2.000000 -1.420408
v -1.500000 -2.000000 -1.371068
v -1.371068 -2.000000 -1.500000
v -1.490185 -2.000000 -1.420408
v -1.462236 -2.000000 -1.462236
v -1.420408 -2.000000 -1.490185
v 1.500000 -2.000000 1.371068
v 1.371068 -2.000000 1.500000
v 1.490185 -2.000000 1.420408
v 1.462236 -2.000000 1.462236
v 1.420408 -2.000000 1.490185
v -1.371068 -2.000000 1.500000
v -1.500000 -2.000000 1.371068
v -1.420408 -2.000000 1.490185
v -1.462236 -2.000000 1.462236
v -1.490185 -2.000000 1.420408
v 1.500000 0.966666 -1.371068
v 1.371068 0.966666 -1.500000
v 1.490185 0.966666 -1.420408
v 1.462236 0.966666 -1.462236
v 1.420408 0.966666 -1.490185
v 1.371068 -0.366667 -1.500000
v 1.500000 -0.366667 -1.371068
v 1.420408 -0.366667 -1.490185
v 1.462236 -0.366667 -1.462236
v 1.490185 -0.366667 -1.420408
v -1.500000 -0.366667 -1.371068
v -1.371068 -0.366667 -1.500000
v -1.490185 -0.366667 -1.420408
v -1.462236 -0.366667 -1.462236
v -1.420408 -0.366667 -1.490185
v -1.371068 0.966666 -1.500000
v -1.500000 0.966666 -1.371068
v -1.420408 0.966666 -1.490185
v -1.462236 0.966666 -1.462236
v -1.490185 0.966666 -1.420408
v -1.500000 0.966666 1.371068
v -1.371068 0.966666 1.500000
v -1.490185 0.966666 1.420408
v -1.462236 0.966666 1.462236
v -1.420408 0.966666 1.490185
v -1.371068 -0.366667 1.500000
v -1.500000 -0.366667 1.371068
v -1.420408 -0.366667 1.490185
v -1.462236 -0.366667 1.462236
v -1.490185 -0.366667 1.420408
v 1.500000 -0.366667 1.371068
v 1.371068 -0.366667 1.500000
v 1.490185 -0.366667 1.420408
v 1.462236 -0.366667 1.462236
v 1.420408 -0.366667 1.490185
v 1.371068 0.966666 1.500000
v 1.500000 0.966666 1.371068
v 1.420408 0.966666 1.490185
v 1.462236 0.966666 1.462236
v 1.490185 0.966666 1.420408
vt 0.730645 0.954185
vt 0.705361 0.954185
vt 0.705361 0.984179
vt 0.730645 0.984179
vt 0.651050 0.954185
vt 0.676334 0.954185
vt 0.676334 0.984179
vt 0.651050 0.984179
vt 0.705361 0.868073
vt 0.730645 0.868073
vt 0.730645 0.915483
vt 0.705361 0.915483
vt 0.676334 0.954185
vt 0.676334 0.984179
vt 0.705361 0.954185
vt 0.730645 0.954185
vt 0.730645 0.984179
vt 0.705361 0.984179
vt 0.676334 0.954185
vt 0.651050 0.954185
vt 0.651050 0.984179
vt 0.676334 0.984179
vt 0.676334 0.954185
vt 0.705361 0.954185
vt 0.705361 0.984179
vt 0.676334 0.984179
vt 0.651050 0.954185
vt 0.651050 0.984179
vt 0.730645 0.954185
vt 0.730645 0.984179
vt 0.651050 0.954185
vt 0.651050 0.984179
vt 0.705361 0.954185
vt 0.705361 0.984179
vt 0.730645 0.954185
vt 0.730645 0.984179
vt 0.705361 0.868073
vt 0.676334 0.868073
vt 0.676334 0.915483
vt 0.705361 0.915483
vt 0.705361 0.972278
vt 0.676334 0.972278
vt 0.677785 0.967924
vt 0.703910 0.967924
vt 0.705361 0.868073
vt 0.730645 0.868073
vt 0.730645 0.915483
vt 0.705361 0.915483
vt 0.651050 0.915483
vt 0.676334 0.868073
vt 0.676334 0.915483
vt 0.647307 0.954185
vt 0.647307 0.915483
vt 0.651661 0.917418
vt 0.651661 0.952250
vt 0.651050 0.868073
vt 0.676334 0.868073
vt 0.676334 0.915483
vt 0.734388 0.914225
vt 0.734388 0.943252
vt 0.730034 0.941800
vt 0.730034 0.915676
vt 0.705361 0.868073
vt 0.676334 0.868073
vt 0.676334 0.915483
vt 0.705361 0.915483
vt 0.647307 0.954185
vt 0.647307 0.915483
vt 0.651661 0.917418
vt 0.651661 0.952250
vt 0.651050 0.868073
vt 0.651050 0.915483
vt 0.730645 0.868073
vt 0.730645 0.915483
vt 0.651050 0.868073
vt 0.651050 0.915483
vt 0.730645 0.868073
vt 0.730645 0.915483
vt 0.651050 0.868073
vt 0.651050 0.915483
vt 0.333982 0.854469
vt 0.256766 0.854469
vt 0.256766 0.957423
vt 0.333982 0.957423
vt 0.256766 0.854469
vt 0.333982 0.854469
vt 0.333982 0.957423
vt 0.256766 0.957423
vt 0.256766 0.854469
vt 0.333982 0.854469
vt 0.333982 0.957423
vt 0.256766 0.957423
vt 0.333982 0.854469
vt 0.256766 0.854469
vt 0.256766 0.957423
vt 0.333982 0.957423
vt 0.734388 0.943252
vt 0.734388 0.914225
vt 0.730034 0.915676
vt 0.730034 0.941800
vt 0.676334 0.972278
vt 0.705361 0.972278
vt 0.703910 0.967924
vt 0.677785 0.967924
vt 0.647307 0.915483
vt 0.647307 0.954185
vt 0.651661 0.952250
vt 0.651661 0.917418
vt 0.647307 0.915483
vt 0.647307 0.954185
vt 0.651661 0.952250
vt 0.651661 0.917418
vt 0.734388 0.954185
vt 0.734388 0.915483
vt 0.730034 0.917418
vt 0.730034 0.952250
vt 0.647307 0.943252
vt 0.647307 0.914225
vt 0.651661 0.915676
vt 0.651661 0.941800
vt 0.734388 0.954185
vt 0.734388 0.915483
vt 0.730034 0.917418
vt 0.730034 0.952250
vt 0.676334 0.885198
vt 0.705361 0.885198
vt 0.703910 0.889552
vt 0.677785 0.889552
vt 0.647307 0.914225
vt 0.647307 0.943252
vt 0.651661 0.941800
vt 0.651661 0.915676
vt 0.705361 0.885198
vt 0.676334 0.885198
vt 0.677785 0.889552
vt 0.703910 0.889552
vt 0.734388 0.915483
vt 0.734388 0.954185
vt 0.730034 0.952250
vt 0.730034 0.917418
vt 0.734388 0.915483
vt 0.734388 0.954185
vt 0.730034 0.952250
vt 0.730034 0.917418
vt 0.900593 0.966193
vt 0.847485 0.966193
vt 0.848935 0.971338
vt 0.899143 0.971338
vt 0.899143 0.855484
vt 0.848935 0.855484
vt 0.847485 0.860630
vt 0.900593 0.860630
vt 0.926820 0.894248
vt 0.926820 0.888195
vt 0.931966 0.888195
vt 0.931966 0.894248
vt 0.816112 0.894248
vt 0.816112 0.888195
vt 0.821258 0.888195
vt 0.821258 0.894248
vt 0.848935 0.888195
vt 0.848935 0.894248
vt 0.899143 0.894248
vt 0.899143 0.888195
vt 0.899143 0.888195
vt 0.899143 0.894248
vt 0.848935 0.894248
vt 0.848935 0.888195
vt 0.848935 0.855484
vt 0.899143 0.855484
vt 0.900593 0.860630
vt 0.847485 0.860630
vt 0.847485 0.966192
vt 0.900593 0.966193
vt 0.899143 0.971338
vt 0.848935 0.971338
vt 0.926820 0.888195
vt 0.926820 0.894248
vt 0.931966 0.894248
vt 0.931966 0.888195
vt 0.816112 0.888195
vt 0.816112 0.894248
vt 0.821258 0.894248
vt 0.821258 0.888195
vt 0.821258 0.939965
vt 0.821258 0.886858
vt 0.816112 0.888307
vt 0.816112 0.938515
vt 0.931966 0.938515
vt 0.931966 0.888307
vt 0.926820 0.886858
vt 0.926820 0.939965
vt 0.821258 0.894248
vt 0.821258 0.888195
vt 0.816112 0.888195
vt 0.816112 0.894248
vt 0.931966 0.894248
vt 0.931966 0.888195
vt 0.926820 0.888195
vt 0.926820 0.894248
vt 0.848935 0.888195
vt 0.848935 0.894248
vt 0.899143 0.894248
vt 0.899143 0.888195
vt 0.899143 0.888195
vt 0.899143 0.894248
vt 0.848935 0.894248
vt 0.848935 0.888195
vt 0.931966 0.888307
vt 0.931966 0.938515
vt 0.926820 0.939965
vt 0.926820 0.886858
vt 0.821258 0.886858
vt 0.821258 0.939965
vt 0.816112 0.938515
vt 0.816112 0.888307
vt 0.821258 0.888195
vt 0.821258 0.894248
vt 0.816112 0.894248
vt 0.816112 0.888195
vt 0.931966 0.888195
vt 0.931966 0.894248
vt 0.926820 0.894248
vt 0.926820 0.888195
vt 0.721523 0.910050
vt 0.721523 0.873506
vt 0.722627 0.873506
vt 0.722627 0.910050
vt 0.723563 0.873506
vt 0.723563 0.910050
vt 0.722627 0.873506
vt 0.722627 0.910050
vt 0.721523 0.873506
vt 0.721523 0.910050
vt 0.732077 0.984179
vt 0.732077 0.954185
vt 0.733291 0.984179
vt 0.733291 0.954185
vt 0.648404 0.954185
vt 0.648404 0.984179
vt 0.649618 0.984179
vt 0.649618 0.954185
vt 0.660172 0.910050
vt 0.660172 0.873506
vt 0.659068 0.873506
vt 0.659068 0.910050
vt 0.658132 0.873506
vt 0.658132 0.910050
vt 0.659068 0.873506
vt 0.659068 0.910050
vt 0.660172 0.873506
vt 0.660172 0.910050
vt 0.649618 0.984179
vt 0.649618 0.954185
vt 0.648404 0.984179
vt 0.648404 0.954185
vt 0.733291 0.954185
vt 0.733291 0.984179
vt 0.732077 0.984179
vt 0.732077 0.954185
vt 0.732077 0.954185
vt 0.732077 0.984179
vt 0.733291 0.954185
vt 0.733291 0.984179
vt 0.732077 0.954185
vt 0.732077 0.984179
vt 0.732077 0.915483
vt 0.733291 0.915483
vt 0.732077 0.915483
vt 0.721523 0.873506
vt 0.721523 0.910050
vt 0.722627 0.910050
vt 0.722627 0.873506
vt 0.723563 0.910050
vt 0.723563 0.873506
vt 0.658132 0.873506
vt 0.658132 0.910050
vt 0.659068 0.910050
vt 0.659068 0.873506
vt 0.660172 0.910050
vt 0.660172 0.873506
vt 0.732077 0.915483
vt 0.733291 0.915483
vt 0.648404 0.915483
vt 0.649618 0.915483
vt 0.649618 0.954185
vt 0.649618 0.984179
vt 0.648404 0.954185
vt 0.648404 0.984179
vt 0.649618 0.954185
vt 0.649618 0.984179
vt 0.649618 0.915483
vt 0.648404 0.915483
vt 0.649618 0.915483
vt 0.660172 0.873506
vt 0.660172 0.910050
vt 0.659068 0.910050
vt 0.659068 0.873506
vt 0.658132 0.910050
vt 0.658132 0.873506
vt 0.723563 0.873506
vt 0.723563 0.910050
vt 0.722627 0.910050
vt 0.722627 0.873506
vt 0.721523 0.910050
vt 0.721523 0.873506
vt 0.649618 0.915483
vt 0.648404 0.915483
vt 0.733291 0.915483
vt 0.732077 0.915483
vn 0.0000 0.0000 -1.0000
vn 1.0000 0.0000 0.0000
vn -1.0000 0.0000 0.0000
vn 0.0000 0.0000 1.0000
vn 0.0000 0.9138 -0.4061
vn -0.3162 0.0000 0.9487
vn 0.4061 0.9138 0.0000
vn 0.9487 0.0000 0.3162
vn 0.4061 -0.9138 0.0000
vn 0.0000 -0.9138 -0.4061
vn -0.9487 0.0000 0.3162
vn -0.3162 0.0000 -0.9487
vn -0.9487 0.0000 -0.3162
vn -0.4061 0.9138 0.0000
vn 0.3162 0.0000 -0.9487
vn 0.0000 0.9138 0.4061
vn -0.4061 -0.9138 0.0000
vn 0.0000 -0.9138 0.4061
vn 0.9487 0.0000 -0.3162
vn 0.3162 0.0000 0.9487
vn 0.0000 -1.0000 0.0000
vn 0.9625 0.0000 -0.2711
vn 0.9625 0.0000 0.2711
vn 0.0000 1.0000 0.0000
vn -0.9625 0.0000 -0.2711
vn -0.9625 -0.0000 0.2711
vn -0.2711 0.0000 -0.9625
vn 0.2711 0.0000 -0.9625
vn -0.2711 0.0000 0.9625
vn 0.2711 -0.0000 0.9625
vn 0.9808 0.0000 -0.1951
vn 0.8315 0.0000 -0.5556
vn 0.5556 0.0000 -0.8315
vn 0.1951 0.0000 -0.9808
vn -0.9808 0.0000 -0.1951
vn -0.8315 0.0000 -0.5556
vn -0.5556 0.0000 -0.8315
vn -0.1951 0.0000 -0.9808
vn -0.9808 0.0000 0.1951
vn -0.8315 0.0000 0.5556
vn -0.5556 0.0000 0.8315
vn -0.1951 0.0000 0.9808
vn 0.9808 0.0000 0.1951
vn 0.8315 0.0000 0.5556
vn 0.5556 0.0000 0.8315
vn 0.1951 0.0000 0.9808
usemtl None
s off
f 122/1/1 18/2/1 3/3/1 97/4/1
f 157/5/2 26/6/2 11/7/2 87/8/2
f 14/9/2 102/10/2 127/11/2 27/12/2
f 18/2/1 20/13/1 4/14/1 3/3/1
f 28/15/2 121/16/2 96/17/2 12/18/2
f 32/19/3 141/20/3 81/21/3 10/22/3
f 22/23/4 24/24/4 2/25/4 1/26/4
f 142/27/4 22/23/4 1/26/4 82/28/4
f 24/24/4 156/29/4 86/30/4 2/25/4
f 26/6/2 28/15/2 12/18/2 11/7/2
f 20/13/1 136/31/1 91/32/1 4/14/1
f 30/33/3 32/19/3 10/22/3 9/34/3
f 137/35/3 30/33/3 9/34/3 92/36/3
f 15/37/3 16/38/3 31/39/3 29/40/3
f 17/41/5 19/42/5 35/43/5 33/44/5
f 8/45/4 112/46/4 152/47/4 23/48/4
f 31/39/3 147/49/3 141/20/3 32/19/3
f 13/50/2 14/9/2 27/12/2 25/51/2
f 30/52/6 29/53/6 45/54/6 46/55/6
f 16/38/3 117/56/3 147/49/3 31/39/3
f 7/57/4 8/45/4 23/48/4 21/58/4
f 25/59/7 27/60/7 43/61/7 41/62/7
f 27/12/2 127/11/2 121/16/2 28/15/2
f 23/48/4 152/47/4 156/29/4 24/24/4
f 5/63/1 6/64/1 19/65/1 17/66/1
f 22/67/8 21/68/8 37/69/8 38/70/8
f 6/64/1 107/71/1 132/72/1 19/65/1
f 19/65/1 132/72/1 136/31/1 20/13/1
f 101/73/1 5/63/1 17/66/1 126/74/1
f 126/74/1 17/66/1 18/2/1 122/1/1
f 116/75/4 7/57/4 21/58/4 146/76/4
f 146/76/4 21/58/4 22/23/4 142/27/4
f 106/77/3 15/37/3 29/40/3 131/78/3
f 131/78/3 29/40/3 30/33/3 137/35/3
f 111/79/2 13/50/2 25/51/2 151/80/2
f 151/80/2 25/51/2 26/6/2 157/5/2
f 45/81/3 47/82/3 48/83/3 46/84/3
f 41/85/2 43/86/2 44/87/2 42/88/2
f 37/89/4 39/90/4 40/91/4 38/92/4
f 33/93/1 35/94/1 36/95/1 34/96/1
f 28/97/9 26/98/9 42/99/9 44/100/9
f 20/101/10 18/102/10 34/103/10 36/104/10
f 23/105/11 24/106/11 40/107/11 39/108/11
f 31/109/12 32/110/12 48/111/12 47/112/12
f 18/113/13 17/114/13 33/115/13 34/116/13
f 29/117/14 31/118/14 47/119/14 45/120/14
f 26/121/15 25/122/15 41/123/15 42/124/15
f 21/125/16 23/126/16 39/127/16 37/128/16
f 32/129/17 30/130/17 46/131/17 48/132/17
f 24/133/18 22/134/18 38/135/18 40/136/18
f 19/137/19 20/138/19 36/139/19 35/140/19
f 27/141/20 28/142/20 44/143/20 43/144/20
f 56/145/21 52/146/21 60/147/21 61/148/21
f 64/149/21 57/150/21 53/151/21 58/152/21
f 55/153/22 56/154/22 61/155/22 62/156/22
f 63/157/23 64/158/23 58/159/23 54/160/23
f 60/161/1 59/162/1 62/163/1 61/164/1
f 64/165/4 63/166/4 50/167/4 57/168/4
f 50/169/24 63/170/24 54/171/24 49/172/24
f 51/173/24 55/174/24 62/175/24 59/176/24
f 52/177/25 51/178/25 59/179/25 60/180/25
f 57/181/26 50/182/26 49/183/26 53/184/26
f 72/185/21 68/186/21 76/187/21 77/188/21
f 80/189/21 73/190/21 69/191/21 74/192/21
f 71/193/27 72/194/27 77/195/27 78/196/27
f 79/197/28 80/198/28 74/199/28 70/200/28
f 76/201/3 75/202/3 78/203/3 77/204/3
f 80/205/2 79/206/2 66/207/2 73/208/2
f 66/209/24 79/210/24 70/211/24 65/212/24
f 67/213/24 71/214/24 78/215/24 75/216/24
f 68/217/29 67/218/29 75/219/29 76/220/29
f 73/221/30 66/222/30 65/223/30 69/224/30
f 127/225/31 102/226/31 105/227/31 130/228/31
f 130/228/32 105/227/32 104/229/32 129/230/32
f 129/230/33 104/229/33 103/231/33 128/232/33
f 128/232/34 103/231/34 101/233/34 126/234/34
f 137/35/35 92/36/35 95/235/35 140/236/35
f 140/236/36 95/235/36 94/237/36 139/238/36
f 139/239/37 94/240/37 93/241/37 138/242/37
f 138/242/38 93/241/38 91/32/38 136/31/38
f 147/243/39 117/244/39 120/245/39 150/246/39
f 150/246/40 120/245/40 119/247/40 149/248/40
f 149/248/41 119/247/41 118/249/41 148/250/41
f 148/250/42 118/249/42 116/251/42 146/252/42
f 157/5/43 87/8/43 90/253/43 160/254/43
f 160/254/44 90/253/44 89/255/44 159/256/44
f 159/257/45 89/258/45 88/259/45 158/260/45
f 158/260/46 88/259/46 86/30/46 156/29/46
f 96/17/31 121/16/31 123/261/31 98/262/31
f 98/262/32 123/261/32 124/263/32 99/264/32
f 99/264/33 124/263/33 125/265/33 100/266/33
f 100/266/34 125/265/34 122/1/34 97/4/34
f 121/16/31 127/11/31 130/267/31 123/261/31
f 123/261/32 130/267/32 129/268/32 124/263/32
f 124/263/33 129/268/33 128/269/33 125/265/33
f 125/265/34 128/269/34 126/74/34 122/1/34
f 106/270/35 131/271/35 133/272/35 108/273/35
f 108/273/36 133/272/36 134/274/36 109/275/36
f 109/276/37 134/277/37 135/278/37 110/279/37
f 110/279/38 135/278/38 132/280/38 107/281/38
f 131/78/35 137/35/35 140/236/35 133/282/35
f 133/282/36 140/236/36 139/238/36 134/283/36
f 134/284/37 139/239/37 138/242/37 135/285/37
f 135/285/38 138/242/38 136/31/38 132/72/38
f 81/21/39 141/20/39 143/286/39 83/287/39
f 83/287/40 143/286/40 144/288/40 84/289/40
f 84/289/41 144/288/41 145/290/41 85/291/41
f 85/291/42 145/290/42 142/27/42 82/28/42
f 141/20/39 147/49/39 150/292/39 143/286/39
f 143/286/40 150/292/40 149/293/40 144/288/40
f 144/288/41 149/293/41 148/294/41 145/290/41
f 145/290/42 148/294/42 146/76/42 142/27/42
f 111/295/43 151/296/43 153/297/43 113/298/43
f 113/298/44 153/297/44 154/299/44 114/300/44
f 114/301/45 154/302/45 155/303/45 115/304/45
f 115/304/46 155/303/46 152/305/46 112/306/46
f 151/80/43 157/5/43 160/254/43 153/307/43
f 153/307/44 160/254/44 159/256/44 154/308/44
f 154/309/45 159/257/45 158/260/45 155/310/45
f 155/310/46 158/260/46 156/29/46 152/47/46
