# Blender v2.83.5 OBJ File: 'INŻ_tiles.blend'
# www.blender.org
mtllib road_line.mtl
o road_line_Plane.004
v -2.000000 0.000000 2.000000
v 2.000000 0.000000 2.000000
v -2.000000 0.000000 -2.000000
v 2.000000 0.000000 -2.000000
v -2.000000 0.000000 -1.000000
v 2.000000 0.000000 -1.000000
v -2.000000 0.000000 1.000000
v 2.000000 0.000000 1.000000
v 2.000000 -0.100000 1.000000
v 2.000000 -0.100000 -1.000000
v -2.000000 -0.100000 -1.000000
v -2.000000 -0.100000 1.000000
vt 0.060478 0.913120
vt 0.134834 0.913120
vt 0.134834 0.931709
vt 0.060478 0.931709
vt 0.134834 0.895275
vt 0.060478 0.895275
vt 0.060478 0.893416
vt 0.134834 0.893416
vt 0.060478 0.857353
vt 0.134834 0.857353
vt 0.134834 0.875942
vt 0.060478 0.875942
vt 0.427288 0.866695
vt 0.547909 0.866695
vt 0.547909 0.927006
vt 0.427288 0.927006
vt 0.060478 0.895275
vt 0.134834 0.895275
vt 0.134834 0.893416
vt 0.060478 0.893416
vn 0.0000 1.0000 0.0000
vn 0.0000 0.0000 1.0000
vn 0.0000 0.0000 -1.0000
usemtl None
s off
f 5/1/1 6/2/1 4/3/1 3/4/1
f 6/5/2 5/6/2 11/7/2 10/8/2
f 1/9/1 2/10/1 8/11/1 7/12/1
f 12/13/1 9/14/1 10/15/1 11/16/1
f 7/17/3 8/18/3 9/19/3 12/20/3
