# Blender v2.83.5 OBJ File: 'INŻ_tiles.blend'
# www.blender.org
mtllib road_corner.mtl
o road_corner_Plane.002
v -2.000000 -0.100000 -1.000000
v -2.000000 -0.100000 1.000000
v 0.999981 -0.100000 -1.999981
v 0.985535 -0.100000 -1.705932
v 0.942337 -0.100000 -1.414714
v 0.870803 -0.100000 -1.129133
v 0.771621 -0.100000 -0.851938
v 0.645747 -0.100000 -0.585800
v 0.494393 -0.100000 -0.333281
v 0.319017 -0.100000 -0.096813
v 0.121307 -0.100000 0.121326
v -0.096832 -0.100000 0.319036
v -0.333300 -0.100000 0.494412
v -0.585819 -0.100000 0.645766
v -0.851957 -0.100000 0.771640
v -1.129151 -0.100000 0.870822
v -1.414733 -0.100000 0.942356
v -1.705950 -0.100000 0.985554
v -1.000019 -0.100000 -1.999981
v -1.004834 -0.100000 -1.901966
v -1.019233 -0.100000 -1.804894
v -1.043078 -0.100000 -1.709702
v -1.076138 -0.100000 -1.617305
v -1.118095 -0.100000 -1.528593
v -1.168546 -0.100000 -1.444422
v -1.227004 -0.100000 -1.365600
v -1.292907 -0.100000 -1.292888
v -1.365619 -0.100000 -1.226985
v -1.444440 -0.100000 -1.168527
v -1.528612 -0.100000 -1.118077
v -1.617324 -0.100000 -1.076119
v -1.709721 -0.100000 -1.043059
v -1.804913 -0.100000 -1.019214
v -1.901985 -0.100000 -1.004815
v -2.000000 0.000000 -1.000000
v -1.000019 0.000000 -1.999981
v -1.004834 0.000000 -1.901966
v -1.019233 0.000000 -1.804894
v -1.043078 0.000000 -1.709702
v -1.076138 0.000000 -1.617305
v -1.118095 0.000000 -1.528593
v -1.168546 0.000000 -1.444422
v -1.227004 0.000000 -1.365600
v -1.292907 0.000000 -1.292888
v -1.365619 0.000000 -1.226985
v -1.444440 0.000000 -1.168527
v -1.528612 0.000000 -1.118077
v -1.617324 0.000000 -1.076119
v -1.709721 0.000000 -1.043059
v -1.804913 0.000000 -1.019214
v -1.901985 0.000000 -1.004815
v -2.000000 0.000000 -1.999981
v -2.000000 0.000000 1.000000
v 0.999981 0.000000 -1.999981
v 0.985535 0.000000 -1.705932
v 0.942337 0.000000 -1.414714
v 0.870803 0.000000 -1.129133
v 0.771621 0.000000 -0.851938
v 0.645747 0.000000 -0.585800
v 0.494393 0.000000 -0.333281
v 0.319017 0.000000 -0.096813
v 0.121307 0.000000 0.121326
v -0.096832 0.000000 0.319036
v -0.333300 0.000000 0.494412
v -0.585819 0.000000 0.645766
v -0.851957 0.000000 0.771640
v -1.129151 0.000000 0.870822
v -1.414733 0.000000 0.942356
v -1.705950 0.000000 0.985554
v 1.999981 0.000000 -1.999981
v 1.999981 0.000000 2.000019
v -2.000019 0.000000 2.000019
vt 0.451768 0.865963
vt 0.457964 0.866882
vt 0.449662 0.908620
vt 0.447597 0.908314
vt 0.445511 0.865655
vt 0.445511 0.908211
vt 0.464041 0.868404
vt 0.451688 0.909127
vt 0.469939 0.870514
vt 0.453654 0.909831
vt 0.475602 0.873193
vt 0.455541 0.910724
vt 0.480975 0.876413
vt 0.457332 0.911797
vt 0.486007 0.880145
vt 0.459009 0.913041
vt 0.490648 0.884352
vt 0.460557 0.914443
vt 0.494855 0.888993
vt 0.461959 0.915990
vt 0.498587 0.894025
vt 0.463203 0.917668
vt 0.501807 0.899398
vt 0.464276 0.919459
vt 0.504485 0.905061
vt 0.465169 0.921346
vt 0.506596 0.910959
vt 0.465872 0.923312
vt 0.508118 0.917035
vt 0.466380 0.925338
vt 0.509037 0.923232
vt 0.466686 0.927403
vt 0.509345 0.929489
vt 0.466789 0.929489
vt 0.091831 0.930732
vt 0.094975 0.930732
vt 0.094975 0.934276
vt 0.091831 0.934276
vt 0.042661 0.930732
vt 0.045935 0.930732
vt 0.045935 0.934276
vt 0.042661 0.934276
vt 0.088849 0.930732
vt 0.088849 0.934276
vt 0.039288 0.930732
vt 0.039288 0.934276
vt 0.086056 0.930732
vt 0.086056 0.934276
vt 0.035849 0.930732
vt 0.035849 0.934276
vt 0.083479 0.930732
vt 0.083479 0.934276
vt 0.105061 0.930732
vt 0.108534 0.930732
vt 0.108534 0.934276
vt 0.105061 0.934276
vt 0.054854 0.930732
vt 0.057431 0.930732
vt 0.057431 0.934276
vt 0.054854 0.934276
vt 0.101622 0.930732
vt 0.101622 0.934276
vt 0.052061 0.930732
vt 0.052061 0.934276
vt 0.098249 0.930732
vt 0.098249 0.934276
vt 0.049079 0.930732
vt 0.049079 0.934276
vt 0.032375 0.930732
vt 0.032375 0.934276
vt 0.063934 0.915323
vt 0.065395 0.916407
vt 0.053636 0.930735
vt 0.071373 0.925354
vt 0.071815 0.927119
vt 0.062373 0.914388
vt 0.070760 0.923642
vt 0.060729 0.913610
vt 0.069983 0.921997
vt 0.059016 0.912998
vt 0.069047 0.920437
vt 0.057252 0.912556
vt 0.067964 0.918976
vt 0.053636 0.912199
vt 0.055453 0.912289
vt 0.066742 0.917628
vt 0.072082 0.928918
vt 0.072171 0.930735
vt 0.063233 0.930732
vt 0.063233 0.934276
vt 0.073055 0.934276
vt 0.073055 0.930732
vt 0.049476 0.930732
vt 0.049476 0.934276
vt 0.058424 0.934276
vt 0.058424 0.930732
vt 0.067854 0.930732
vt 0.067854 0.934276
vt 0.077677 0.934276
vt 0.077677 0.930732
vt 0.053114 0.930732
vt 0.053114 0.934276
vt 0.041097 0.930732
vt 0.041097 0.934276
vt 0.087796 0.934276
vt 0.087796 0.930732
vt 0.042795 0.930732
vt 0.042795 0.934276
vt 0.033368 0.930732
vt 0.033368 0.934276
vt 0.098115 0.934276
vt 0.098115 0.930732
vt 0.099813 0.930732
vt 0.099813 0.934276
vt 0.107542 0.934276
vt 0.107542 0.930732
vt 0.108534 0.934276
vt 0.108534 0.930732
vt 0.091434 0.930732
vt 0.091434 0.934276
vt 0.032375 0.930732
vt 0.032375 0.934276
vt 0.082486 0.930732
vt 0.082486 0.934276
vt 0.127778 0.856592
vt 0.096620 0.895458
vt 0.092956 0.891415
vt 0.108975 0.925284
vt 0.127778 0.930735
vt 0.109243 0.930735
vt 0.074916 0.879361
vt 0.053636 0.856592
vt 0.059086 0.875396
vt 0.053636 0.875128
vt 0.064484 0.876197
vt 0.108174 0.919886
vt 0.105010 0.909455
vt 0.106848 0.914593
vt 0.069778 0.877523
vt 0.079849 0.881694
vt 0.102677 0.904522
vt 0.099871 0.899841
vt 0.084529 0.884500
vt 0.088912 0.887750
vn 0.0000 1.0000 -0.0000
vn 0.9040 0.0000 0.4276
vn 0.3369 0.0000 0.9415
vn 0.8577 0.0000 0.5141
vn 0.2430 0.0000 0.9700
vn 0.8032 0.0000 0.5957
vn 0.1467 0.0000 0.9892
vn 0.7410 0.0000 0.6716
vn 0.9988 0.0000 0.0491
vn 0.6716 0.0000 0.7410
vn 0.9892 0.0000 0.1467
vn 0.5957 0.0000 0.8032
vn 0.9700 0.0000 0.2430
vn 0.5141 0.0000 0.8577
vn 0.0491 0.0000 0.9988
vn 0.9415 0.0000 0.3369
vn 0.4276 0.0000 0.9040
vn -0.3369 0.0000 -0.9415
vn -0.8577 0.0000 -0.5141
vn -0.9415 0.0000 -0.3369
vn -0.2430 0.0000 -0.9700
vn -0.8032 0.0000 -0.5957
vn -0.9700 0.0000 -0.2430
vn -0.1467 0.0000 -0.9892
vn -0.7410 0.0000 -0.6716
vn -0.9892 0.0000 -0.1467
vn -0.6716 0.0000 -0.7410
vn -0.9988 0.0000 -0.0491
vn -0.5957 0.0000 -0.8032
vn -0.0491 0.0000 -0.9988
vn -0.5141 0.0000 -0.8577
vn -0.4276 0.0000 -0.9040
vn -0.9040 0.0000 -0.4276
usemtl None
s off
f 18/1/1 17/2/1 33/3/1 34/4/1
f 2/5/1 18/1/1 34/4/1 1/6/1
f 17/2/1 16/7/1 32/8/1 33/3/1
f 16/7/1 15/9/1 31/10/1 32/8/1
f 15/9/1 14/11/1 30/12/1 31/10/1
f 14/11/1 13/13/1 29/14/1 30/12/1
f 13/13/1 12/15/1 28/16/1 29/14/1
f 12/15/1 11/17/1 27/18/1 28/16/1
f 11/17/1 10/19/1 26/20/1 27/18/1
f 10/19/1 9/21/1 25/22/1 26/20/1
f 9/21/1 8/23/1 24/24/1 25/22/1
f 8/23/1 7/25/1 23/26/1 24/24/1
f 7/25/1 6/27/1 22/28/1 23/26/1
f 6/27/1 5/29/1 21/30/1 22/28/1
f 5/29/1 4/31/1 20/32/1 21/30/1
f 4/31/1 3/33/1 19/34/1 20/32/1
f 24/35/2 23/36/2 40/37/2 41/38/2
f 32/39/3 31/40/3 48/41/3 49/42/3
f 25/43/4 24/35/4 41/38/4 42/44/4
f 33/45/5 32/39/5 49/42/5 50/46/5
f 26/47/6 25/43/6 42/44/6 43/48/6
f 34/49/7 33/45/7 50/46/7 51/50/7
f 27/51/8 26/47/8 43/48/8 44/52/8
f 20/53/9 19/54/9 36/55/9 37/56/9
f 28/57/10 27/58/10 44/59/10 45/60/10
f 21/61/11 20/53/11 37/56/11 38/62/11
f 29/63/12 28/57/12 45/60/12 46/64/12
f 22/65/13 21/61/13 38/62/13 39/66/13
f 30/67/14 29/63/14 46/64/14 47/68/14
f 1/69/15 34/49/15 51/50/15 35/70/15
f 23/36/16 22/65/16 39/66/16 40/37/16
f 31/40/17 30/67/17 47/68/17 48/41/17
f 46/71/1 45/72/1 52/73/1
f 39/74/1 38/75/1 52/73/1
f 47/76/1 46/71/1 52/73/1
f 40/77/1 39/74/1 52/73/1
f 48/78/1 47/76/1 52/73/1
f 41/79/1 40/77/1 52/73/1
f 49/80/1 48/78/1 52/73/1
f 42/81/1 41/79/1 52/73/1
f 50/82/1 49/80/1 52/73/1
f 43/83/1 42/81/1 52/73/1
f 35/84/1 51/85/1 52/73/1
f 51/85/1 50/82/1 52/73/1
f 44/86/1 43/83/1 52/73/1
f 37/87/1 36/88/1 52/73/1
f 45/72/1 44/86/1 52/73/1
f 38/75/1 37/87/1 52/73/1
f 16/89/18 67/90/18 66/91/18 15/92/18
f 9/93/19 60/94/19 59/95/19 8/96/19
f 7/97/20 58/98/20 57/99/20 6/100/20
f 17/101/21 68/102/21 67/90/21 16/89/21
f 10/103/22 61/104/22 60/94/22 9/93/22
f 6/100/23 57/99/23 56/105/23 5/106/23
f 18/107/24 69/108/24 68/102/24 17/101/24
f 11/109/25 62/110/25 61/104/25 10/103/25
f 5/106/26 56/105/26 55/111/26 4/112/26
f 12/113/27 63/114/27 62/115/27 11/116/27
f 4/112/28 55/111/28 54/117/28 3/118/28
f 13/119/29 64/120/29 63/114/29 12/113/29
f 2/121/30 53/122/30 69/108/30 18/107/30
f 14/123/31 65/124/31 64/120/31 13/119/31
f 15/92/32 66/91/32 65/124/32 14/123/32
f 8/96/33 59/95/33 58/98/33 7/97/33
f 71/125/1 61/126/1 62/127/1
f 55/128/1 70/129/1 54/130/1
f 71/125/1 66/131/1 72/132/1
f 72/132/1 69/133/1 53/134/1
f 72/132/1 68/135/1 69/133/1
f 55/128/1 56/136/1 70/129/1
f 70/129/1 58/137/1 71/125/1
f 56/136/1 57/138/1 70/129/1
f 57/138/1 58/137/1 70/129/1
f 72/132/1 67/139/1 68/135/1
f 72/132/1 66/131/1 67/139/1
f 71/125/1 65/140/1 66/131/1
f 59/141/1 71/125/1 58/137/1
f 60/142/1 71/125/1 59/141/1
f 71/125/1 64/143/1 65/140/1
f 71/125/1 63/144/1 64/143/1
f 61/126/1 71/125/1 60/142/1
f 71/125/1 62/127/1 63/144/1
