# Blender v2.83.5 OBJ File: 'INŻ_tiles.blend'
# www.blender.org
mtllib road_T.mtl
o road_T_Plane.005
v -2.000000 -0.100000 -1.000000
v -1.000000 -0.100000 -2.000000
v -1.000418 -0.100000 -1.901966
v -1.014051 -0.100000 -1.804894
v -1.036627 -0.100000 -1.709702
v -1.067928 -0.100000 -1.617305
v -1.107652 -0.100000 -1.528593
v -1.155418 -0.100000 -1.444422
v -1.210765 -0.100000 -1.365600
v -1.273161 -0.100000 -1.292888
v -1.342004 -0.100000 -1.226985
v -1.416631 -0.100000 -1.168527
v -1.496323 -0.100000 -1.118077
v -1.580314 -0.100000 -1.076119
v -1.667794 -0.100000 -1.043059
v -1.757921 -0.100000 -1.019214
v -1.849827 -0.100000 -1.004815
v -2.000000 0.000000 -1.000000
v -1.000000 0.000000 -2.000000
v -1.000418 0.000000 -1.901966
v -1.014051 0.000000 -1.804894
v -1.036627 0.000000 -1.709702
v -1.067928 0.000000 -1.617305
v -1.107652 0.000000 -1.528593
v -1.155418 0.000000 -1.444422
v -1.210765 0.000000 -1.365600
v -1.273161 0.000000 -1.292888
v -1.342004 0.000000 -1.226985
v -1.416631 0.000000 -1.168527
v -1.496323 0.000000 -1.118077
v -1.580314 0.000000 -1.076119
v -1.667794 0.000000 -1.043059
v -1.757921 0.000000 -1.019214
v -1.849827 0.000000 -1.004815
v -2.000000 0.000000 -1.999981
v 2.000000 -0.100000 -1.000000
v 0.019670 -0.100000 -0.003208
v 1.000019 -0.100000 -1.999981
v 1.004834 -0.100000 -1.901966
v 1.019233 -0.100000 -1.804894
v 1.043078 -0.100000 -1.709702
v 1.076138 -0.100000 -1.617305
v 1.118095 -0.100000 -1.528593
v 1.168546 -0.100000 -1.444422
v 1.227004 -0.100000 -1.365600
v 1.292907 -0.100000 -1.292888
v 1.365619 -0.100000 -1.226985
v 1.444440 -0.100000 -1.168527
v 1.528612 -0.100000 -1.118077
v 1.617324 -0.100000 -1.076119
v 1.709721 -0.100000 -1.043059
v 1.804914 -0.100000 -1.019214
v 1.901985 -0.100000 -1.004815
v 2.000000 0.000000 -1.000000
v 1.000019 0.000000 -1.999981
v 1.004834 0.000000 -1.901966
v 1.019233 0.000000 -1.804894
v 1.043078 0.000000 -1.709702
v 1.076138 0.000000 -1.617305
v 1.118095 0.000000 -1.528593
v 1.168546 0.000000 -1.444422
v 1.227004 0.000000 -1.365600
v 1.292907 0.000000 -1.292888
v 1.365619 0.000000 -1.226985
v 1.444440 0.000000 -1.168527
v 1.528612 0.000000 -1.118077
v 1.617324 0.000000 -1.076119
v 1.709721 0.000000 -1.043059
v 1.804914 0.000000 -1.019214
v 1.901985 0.000000 -1.004815
v 2.000000 0.000000 -1.999981
v 2.000000 -0.100000 1.000000
v -2.000000 -0.100000 1.000000
v 0.019670 -0.100000 1.000000
v 2.000000 0.000000 1.000000
v -2.000000 0.000000 1.000000
v 0.019670 0.000000 1.000000
v 2.000000 0.000000 2.000000
v -2.000000 0.000000 2.000000
v 0.019670 0.000000 2.000000
vt 0.489827 0.891284
vt 0.450481 0.913487
vt 0.448359 0.913172
vt 0.445692 0.913067
vt 0.452561 0.914008
vt 0.454580 0.914730
vt 0.456518 0.915647
vt 0.458358 0.916749
vt 0.460080 0.918027
vt 0.461669 0.919467
vt 0.463109 0.921056
vt 0.464387 0.922778
vt 0.465489 0.924618
vt 0.466406 0.926556
vt 0.467128 0.928575
vt 0.467649 0.930655
vt 0.467964 0.932777
vt 0.468069 0.934919
vt 0.100192 0.918355
vt 0.102171 0.918355
vt 0.102171 0.920585
vt 0.100192 0.920585
vt 0.053362 0.918355
vt 0.055423 0.918355
vt 0.055423 0.920585
vt 0.053362 0.920585
vt 0.098315 0.918355
vt 0.098315 0.920585
vt 0.051239 0.918355
vt 0.051239 0.920585
vt 0.096557 0.918355
vt 0.096557 0.920585
vt 0.049074 0.918355
vt 0.049074 0.920585
vt 0.094935 0.918355
vt 0.094935 0.920585
vt 0.108520 0.918355
vt 0.110706 0.918355
vt 0.110706 0.920585
vt 0.108520 0.920585
vt 0.061037 0.918355
vt 0.062659 0.918355
vt 0.062659 0.920585
vt 0.061037 0.920585
vt 0.106355 0.918355
vt 0.106355 0.920585
vt 0.059279 0.918355
vt 0.059279 0.920585
vt 0.104232 0.918355
vt 0.104232 0.920585
vt 0.057402 0.918355
vt 0.057402 0.920585
vt 0.046352 0.918355
vt 0.046352 0.920585
vt 0.059279 0.920391
vt 0.061037 0.921695
vt 0.046352 0.938935
vt 0.068231 0.932461
vt 0.068763 0.934584
vt 0.057402 0.919266
vt 0.067493 0.930400
vt 0.055423 0.918330
vt 0.066558 0.928422
vt 0.053362 0.917592
vt 0.065432 0.926544
vt 0.051239 0.917060
vt 0.064129 0.924786
vt 0.046352 0.916632
vt 0.049074 0.916739
vt 0.062659 0.923164
vt 0.069084 0.936749
vt 0.069191 0.938935
vt 0.530960 0.913172
vt 0.528839 0.913487
vt 0.533102 0.913067
vt 0.526758 0.914008
vt 0.524739 0.914730
vt 0.522801 0.915647
vt 0.520961 0.916749
vt 0.519239 0.918027
vt 0.517650 0.919467
vt 0.516210 0.921056
vt 0.514932 0.922778
vt 0.513830 0.924618
vt 0.512913 0.926556
vt 0.512191 0.928575
vt 0.511670 0.930655
vt 0.511355 0.932777
vt 0.511250 0.934919
vt 0.100192 0.918355
vt 0.100192 0.920585
vt 0.102171 0.920585
vt 0.102171 0.918355
vt 0.129093 0.918355
vt 0.129093 0.920585
vt 0.127032 0.920585
vt 0.127032 0.918355
vt 0.098315 0.918355
vt 0.098315 0.920585
vt 0.131216 0.918355
vt 0.131216 0.920585
vt 0.096557 0.918355
vt 0.096557 0.920585
vt 0.133381 0.918355
vt 0.133381 0.920585
vt 0.094935 0.918355
vt 0.094935 0.920585
vt 0.108520 0.918355
vt 0.108520 0.920585
vt 0.110706 0.920585
vt 0.110706 0.918355
vt 0.121418 0.918355
vt 0.121418 0.920585
vt 0.119796 0.920585
vt 0.119796 0.918355
vt 0.106355 0.918355
vt 0.106355 0.920585
vt 0.123176 0.918355
vt 0.123176 0.920585
vt 0.104232 0.918355
vt 0.104232 0.920585
vt 0.125054 0.918355
vt 0.125054 0.920585
vt 0.135567 0.918355
vt 0.135567 0.920585
vt 0.123176 0.920391
vt 0.135567 0.938935
vt 0.121418 0.921695
vt 0.114224 0.932461
vt 0.113692 0.934584
vt 0.125054 0.919266
vt 0.114962 0.930400
vt 0.127032 0.918330
vt 0.115897 0.928422
vt 0.129093 0.917592
vt 0.117023 0.926544
vt 0.131216 0.917060
vt 0.118327 0.924786
vt 0.135567 0.916632
vt 0.133381 0.916739
vt 0.119796 0.923164
vt 0.113371 0.936749
vt 0.113264 0.938935
vt 0.533102 0.869362
vt 0.489827 0.869362
vt 0.445692 0.869362
vt 0.135567 0.918355
vt 0.091398 0.918355
vt 0.091398 0.920585
vt 0.135567 0.920585
vt 0.046352 0.918355
vt 0.046352 0.920585
vt 0.135567 0.872024
vt 0.091398 0.872024
vt 0.091398 0.849720
vt 0.135567 0.849720
vt 0.046352 0.872024
vt 0.046352 0.849720
vn 0.0000 1.0000 -0.0000
vn 0.9127 0.0000 0.4087
vn 0.3535 0.0000 0.9354
vn 0.8697 0.0000 0.4935
vn 0.2558 0.0000 0.9667
vn 0.8184 0.0000 0.5747
vn 0.1548 0.0000 0.9879
vn 0.7589 0.0000 0.6512
vn 1.0000 0.0000 0.0043
vn 0.6915 0.0000 0.7224
vn 0.9903 0.0000 0.1391
vn 0.6167 0.0000 0.7872
vn 0.9730 0.0000 0.2308
vn 0.5349 0.0000 0.8449
vn 0.0320 0.0000 0.9995
vn 0.9471 0.0000 0.3209
vn 0.4469 0.0000 0.8946
vn -0.9040 0.0000 0.4276
vn -0.3369 0.0000 0.9415
vn -0.8577 0.0000 0.5141
vn -0.2430 0.0000 0.9700
vn -0.8032 0.0000 0.5957
vn -0.1467 0.0000 0.9892
vn -0.7410 0.0000 0.6716
vn -0.9988 0.0000 0.0491
vn -0.6716 0.0000 0.7410
vn -0.9892 0.0000 0.1467
vn -0.5957 0.0000 0.8032
vn -0.9700 0.0000 0.2430
vn -0.5141 0.0000 0.8577
vn -0.0491 0.0000 0.9988
vn -0.9415 0.0000 0.3369
vn -0.4276 0.0000 0.9040
vn 0.0000 0.0000 -1.0000
usemtl None
s off
f 37/1/1 16/2/1 17/3/1
f 1/4/1 37/1/1 17/3/1
f 37/1/1 15/5/1 16/2/1
f 37/1/1 14/6/1 15/5/1
f 37/1/1 13/7/1 14/6/1
f 37/1/1 12/8/1 13/7/1
f 37/1/1 11/9/1 12/8/1
f 37/1/1 10/10/1 11/9/1
f 37/1/1 9/11/1 10/10/1
f 37/1/1 8/12/1 9/11/1
f 37/1/1 7/13/1 8/12/1
f 37/1/1 6/14/1 7/13/1
f 37/1/1 5/15/1 6/14/1
f 37/1/1 4/16/1 5/15/1
f 37/1/1 3/17/1 4/16/1
f 37/1/1 2/18/1 3/17/1
f 7/19/2 6/20/2 23/21/2 24/22/2
f 15/23/3 14/24/3 31/25/3 32/26/3
f 8/27/4 7/19/4 24/22/4 25/28/4
f 16/29/5 15/23/5 32/26/5 33/30/5
f 9/31/6 8/27/6 25/28/6 26/32/6
f 17/33/7 16/29/7 33/30/7 34/34/7
f 10/35/8 9/31/8 26/32/8 27/36/8
f 3/37/9 2/38/9 19/39/9 20/40/9
f 11/41/10 10/42/10 27/43/10 28/44/10
f 4/45/11 3/37/11 20/40/11 21/46/11
f 12/47/12 11/41/12 28/44/12 29/48/12
f 5/49/13 4/45/13 21/46/13 22/50/13
f 13/51/14 12/47/14 29/48/14 30/52/14
f 1/53/15 17/33/15 34/34/15 18/54/15
f 6/20/16 5/49/16 22/50/16 23/21/16
f 14/24/17 13/51/17 30/52/17 31/25/17
f 29/55/1 28/56/1 35/57/1
f 22/58/1 21/59/1 35/57/1
f 30/60/1 29/55/1 35/57/1
f 23/61/1 22/58/1 35/57/1
f 31/62/1 30/60/1 35/57/1
f 24/63/1 23/61/1 35/57/1
f 32/64/1 31/62/1 35/57/1
f 25/65/1 24/63/1 35/57/1
f 33/66/1 32/64/1 35/57/1
f 26/67/1 25/65/1 35/57/1
f 18/68/1 34/69/1 35/57/1
f 34/69/1 33/66/1 35/57/1
f 27/70/1 26/67/1 35/57/1
f 20/71/1 19/72/1 35/57/1
f 28/56/1 27/70/1 35/57/1
f 21/59/1 20/71/1 35/57/1
f 37/1/1 53/73/1 52/74/1
f 36/75/1 53/73/1 37/1/1
f 37/1/1 52/74/1 51/76/1
f 37/1/1 51/76/1 50/77/1
f 37/1/1 50/77/1 49/78/1
f 37/1/1 49/78/1 48/79/1
f 37/1/1 48/79/1 47/80/1
f 37/1/1 47/80/1 46/81/1
f 37/1/1 46/81/1 45/82/1
f 37/1/1 45/82/1 44/83/1
f 37/1/1 44/83/1 43/84/1
f 37/1/1 43/84/1 42/85/1
f 37/1/1 42/85/1 41/86/1
f 37/1/1 41/86/1 40/87/1
f 37/1/1 40/87/1 39/88/1
f 37/1/1 39/88/1 38/89/1
f 43/90/18 60/91/18 59/92/18 42/93/18
f 51/94/19 68/95/19 67/96/19 50/97/19
f 44/98/20 61/99/20 60/91/20 43/90/20
f 52/100/21 69/101/21 68/95/21 51/94/21
f 45/102/22 62/103/22 61/99/22 44/98/22
f 53/104/23 70/105/23 69/101/23 52/100/23
f 46/106/24 63/107/24 62/103/24 45/102/24
f 39/108/25 56/109/25 55/110/25 38/111/25
f 47/112/26 64/113/26 63/114/26 46/115/26
f 40/116/27 57/117/27 56/109/27 39/108/27
f 48/118/28 65/119/28 64/113/28 47/112/28
f 41/120/29 58/121/29 57/117/29 40/116/29
f 49/122/30 66/123/30 65/119/30 48/118/30
f 36/124/31 54/125/31 70/105/31 53/104/31
f 42/93/32 59/92/32 58/121/32 41/120/32
f 50/97/33 67/96/33 66/123/33 49/122/33
f 65/126/1 71/127/1 64/128/1
f 58/129/1 71/127/1 57/130/1
f 66/131/1 71/127/1 65/126/1
f 59/132/1 71/127/1 58/129/1
f 67/133/1 71/127/1 66/131/1
f 60/134/1 71/127/1 59/132/1
f 68/135/1 71/127/1 67/133/1
f 61/136/1 71/127/1 60/134/1
f 69/137/1 71/127/1 68/135/1
f 62/138/1 71/127/1 61/136/1
f 54/139/1 71/127/1 70/140/1
f 70/140/1 71/127/1 69/137/1
f 63/141/1 71/127/1 62/138/1
f 56/142/1 71/127/1 55/143/1
f 64/128/1 71/127/1 63/141/1
f 57/130/1 71/127/1 56/142/1
f 37/1/1 38/89/1 2/18/1
f 72/144/1 37/1/1 74/145/1
f 74/145/1 37/1/1 73/146/1
f 1/4/1 73/146/1 37/1/1
f 36/75/1 37/1/1 72/144/1
f 72/147/34 74/148/34 77/149/34 75/150/34
f 74/148/34 73/151/34 76/152/34 77/149/34
f 75/153/1 77/154/1 80/155/1 78/156/1
f 77/154/1 76/157/1 79/158/1 80/155/1
