# Blender v2.83.5 OBJ File: 'INŻ_tiles.blend'
# www.blender.org
mtllib roof_side.mtl
o roof_side_Plane.021
v -1.863317 -2.000000 0.000000
v -2.000000 -2.000000 -0.136683
v -1.915623 -2.000000 -0.010404
v -1.959966 -2.000000 -0.040034
v -1.989596 -2.000000 -0.084377
v 2.000000 -2.000000 -0.136683
v 1.863317 -2.000000 0.000000
v 1.989596 -2.000000 -0.084377
v 1.959966 -2.000000 -0.040034
v 1.915623 -2.000000 -0.010404
v 0.000000 -0.602512 -1.863317
v 0.136683 -0.602512 -2.000000
v -0.136683 -0.602512 -2.000000
v 0.035954 -0.590248 -1.890073
v 0.074556 -0.585942 -1.925444
v -0.035954 -0.590248 -1.890073
v 0.000000 -0.577344 -1.927516
v 0.037278 -0.570284 -1.962722
v 0.000000 -0.562455 -2.000000
v 0.109927 -0.590248 -1.964046
v 0.072484 -0.577344 -2.000000
v -0.109927 -0.590248 -1.964046
v -0.074556 -0.585942 -1.925444
v -0.072484 -0.577344 -2.000000
v -0.037278 -0.570284 -1.962722
v -2.000000 -2.000000 -2.000000
v 2.000000 -2.000000 -2.000000
vt 0.231969 0.646610
vt 0.322718 0.646610
vt 0.277344 0.691984
vt 0.228641 0.649938
vt 0.274015 0.695312
vt 0.000000 0.000000
vt 0.278219 0.692636
vt 0.277344 0.693547
vt 0.276468 0.692636
vt 0.279159 0.693497
vt 0.278252 0.694405
vt 0.276436 0.694405
vt 0.275528 0.693497
vt 0.277344 0.695312
vt 0.280021 0.694437
vt 0.279109 0.695312
vt 0.280672 0.695312
vt 0.274667 0.694437
vt 0.275579 0.695312
vt 0.323992 0.646863
vt 0.325072 0.647584
vt 0.325793 0.648664
vt 0.326047 0.649938
vt 0.230696 0.646863
vt 0.229616 0.647584
vt 0.228894 0.648664
vt 0.000000 0.000000
vn 0.0000 0.8000 0.6000
vn -0.6000 0.8000 0.0000
vn 0.0000 0.9310 0.3650
vn 0.1032 0.9586 0.2653
vn -0.1032 0.9586 0.2653
vn 0.0000 0.9795 0.2012
vn 0.2653 0.9586 0.1032
vn 0.3646 0.9300 -0.0459
vn 0.2012 0.9795 0.0045
vn -0.2653 0.9586 0.1032
vn -0.3646 0.9300 -0.0459
vn -0.2012 0.9795 0.0045
vn 0.1049 0.8431 0.5274
vn 0.2643 0.8796 0.3955
vn 0.3955 0.8796 0.2642
vn 0.5274 0.8431 0.1049
vn -0.1049 0.8431 0.5274
vn -0.2643 0.8796 0.3955
vn -0.3955 0.8796 0.2642
vn -0.5274 0.8431 0.1049
vn 0.6000 0.8000 0.0000
usemtl None
s off
f 1/1/1 7/2/1 11/3/1
f 2/4/2 13/5/2 26/6/2
f 11/3/3 14/7/3 17/8/3 16/9/3
f 14/7/4 15/10/4 18/11/4 17/8/4
f 16/9/5 17/8/5 25/12/5 23/13/5
f 17/8/6 18/11/6 19/14/6 25/12/6
f 20/15/7 21/16/7 18/11/7 15/10/7
f 20/15/8 12/17/8 21/16/8
f 18/11/9 21/16/9 19/14/9
f 22/18/10 23/13/10 25/12/10 24/19/10
f 22/18/11 24/19/11 13/5/11
f 25/12/12 19/14/12 24/19/12
f 11/3/13 7/2/13 10/20/13 14/7/13
f 14/7/14 10/20/14 9/21/14 15/10/14
f 15/10/15 9/21/15 8/22/15 20/15/15
f 20/15/16 8/22/16 6/23/16 12/17/16
f 1/1/17 11/3/17 16/9/17 3/24/17
f 3/24/18 16/9/18 23/13/18 4/25/18
f 4/25/19 23/13/19 22/18/19 5/26/19
f 5/26/20 22/18/20 13/5/20 2/4/20
f 12/17/21 6/23/21 27/27/21
