# Blender v2.83.5 OBJ File: 'INŻ_tiles.blend'
# www.blender.org
mtllib roof_mid.mtl
o roof_mid_Plane.017
v -2.000000 -2.000000 2.000000
v 2.000000 -2.000000 2.000000
v -2.000000 -2.000000 -2.000000
v 2.000000 -2.000000 -2.000000
v -0.136683 -0.602512 -2.000000
v 0.136684 -0.602512 -2.000000
v -0.072484 -0.577344 -2.000000
v 0.000000 -0.562455 -2.000000
v 0.072484 -0.577344 -2.000000
v 0.136684 -0.602512 2.000000
v -0.136683 -0.602512 2.000000
v 0.072484 -0.577344 2.000000
v -0.000000 -0.562455 2.000000
v -0.072484 -0.577344 2.000000
vt 0.228641 0.649938
vt 0.228641 0.740687
vt 0.326047 0.740687
vt 0.326047 0.649938
vt 0.025604 0.051039
vt 0.278101 0.698876
vt 0.270452 0.698876
vt 0.017955 0.051039
vt 0.010648 0.030269
vt 0.271902 0.697426
vt 0.000000 0.000000
vt 0.274015 0.695312
vt 0.015185 0.030269
vt 0.276439 0.697426
vn 0.0000 -1.0000 0.0000
vn 0.6000 0.8000 0.0000
vn -0.3650 0.9310 -0.0000
vn -0.2012 0.9795 -0.0000
vn 0.2012 0.9795 0.0000
vn 0.3650 0.9310 0.0000
vn -0.6000 0.8000 0.0000
usemtl None
s off
f 1/1/1 3/2/1 4/3/1 2/4/1
f 10/5/2 2/4/2 4/3/2 6/6/2
f 5/7/3 11/8/3 14/9/3 7/10/3
f 7/10/4 14/9/4 13/11/4 8/12/4
f 8/12/5 13/11/5 12/13/5 9/14/5
f 9/14/6 12/13/6 10/5/6 6/6/6
f 11/8/7 5/7/7 3/2/7 1/1/7
