# Blender v2.83.5 OBJ File: 'INŻ_tiles.blend'
# www.blender.org
mtllib roof.mtl
o roof_Plane.013
v -1.863317 -2.000000 2.000000
v -2.000000 -2.000000 1.863317
v -1.915623 -2.000000 1.989596
v -1.959966 -2.000000 1.959966
v -1.989596 -2.000000 1.915623
v 2.000000 -2.000000 1.863317
v 1.863317 -2.000000 2.000000
v 1.989596 -2.000000 1.915623
v 1.959966 -2.000000 1.959966
v 1.915623 -2.000000 1.989596
v -2.000000 -2.000000 -1.863317
v -1.863317 -2.000000 -2.000000
v -1.989596 -2.000000 -1.915623
v -1.959966 -2.000000 -1.959966
v -1.915623 -2.000000 -1.989596
v 1.863317 -2.000000 -2.000000
v 2.000000 -2.000000 -1.863317
v 1.915623 -2.000000 -1.989596
v 1.959966 -2.000000 -1.959966
v 1.989596 -2.000000 -1.915623
v 0.000000 -0.602512 0.136683
v 0.136683 -0.602512 -0.000000
v -0.000000 -0.602512 -0.136683
v -0.136683 -0.602512 0.000000
v 0.035954 -0.590248 0.109927
v 0.074556 -0.585942 0.074556
v -0.035954 -0.590248 0.109927
v 0.000000 -0.577344 0.072484
v 0.037278 -0.570284 0.037278
v 0.000000 -0.562455 -0.000000
v 0.109927 -0.590248 -0.035954
v 0.074556 -0.585942 -0.074556
v 0.109927 -0.590248 0.035954
v 0.072484 -0.577344 0.000000
v 0.037278 -0.570284 -0.037278
v -0.035954 -0.590248 -0.109927
v -0.074556 -0.585942 -0.074556
v 0.035954 -0.590248 -0.109927
v -0.000000 -0.577344 -0.072484
v -0.037278 -0.570284 -0.037278
v -0.109927 -0.590248 0.035954
v -0.074556 -0.585942 0.074556
v -0.109927 -0.590248 -0.035954
v -0.072484 -0.577344 -0.000000
v -0.037278 -0.570284 0.037278
vt 0.231969 0.646610
vt 0.322718 0.646610
vt 0.277344 0.691984
vt 0.322718 0.744015
vt 0.231969 0.744015
vt 0.277344 0.698641
vt 0.230696 0.646863
vt 0.229616 0.647584
vt 0.228894 0.648664
vt 0.228641 0.649938
vt 0.228641 0.740687
vt 0.228894 0.741961
vt 0.229616 0.743040
vt 0.230696 0.743762
vt 0.323992 0.743762
vt 0.325072 0.743040
vt 0.325793 0.741961
vt 0.326047 0.740687
vt 0.326047 0.649938
vt 0.325793 0.648664
vt 0.325072 0.647584
vt 0.323992 0.646863
vt 0.280672 0.695312
vt 0.278219 0.692636
vt 0.277344 0.693547
vt 0.276468 0.692636
vt 0.279159 0.693497
vt 0.278252 0.694405
vt 0.276436 0.694405
vt 0.275528 0.693497
vt 0.277344 0.695312
vt 0.280021 0.696188
vt 0.279109 0.695312
vt 0.280021 0.694437
vt 0.279159 0.697128
vt 0.278252 0.696220
vt 0.276468 0.697989
vt 0.277344 0.697078
vt 0.278219 0.697989
vt 0.275528 0.697128
vt 0.276436 0.696220
vt 0.274015 0.695312
vt 0.274667 0.694437
vt 0.275579 0.695312
vt 0.274667 0.696188
vn 0.0000 0.8000 0.6000
vn 0.0000 0.8000 -0.6000
vn 0.0000 -1.0000 -0.0000
vn 0.6000 0.8000 0.0000
vn 0.0000 0.9310 0.3650
vn 0.1032 0.9586 0.2653
vn -0.1032 0.9586 0.2653
vn -0.0000 0.9795 0.2012
vn 0.3650 0.9310 0.0000
vn 0.2653 0.9586 -0.1032
vn 0.2653 0.9586 0.1032
vn 0.2012 0.9795 -0.0000
vn -0.0000 0.9310 -0.3650
vn -0.1032 0.9586 -0.2653
vn 0.1032 0.9586 -0.2653
vn 0.0000 0.9795 -0.2012
vn -0.3650 0.9310 -0.0000
vn -0.2653 0.9586 0.1032
vn -0.2653 0.9586 -0.1032
vn -0.2012 0.9795 0.0000
vn 0.1049 0.8431 0.5274
vn 0.2643 0.8796 0.3955
vn 0.3955 0.8796 0.2642
vn 0.5274 0.8431 0.1049
vn 0.1049 0.8431 -0.5274
vn 0.2643 0.8796 -0.3955
vn 0.3955 0.8796 -0.2642
vn 0.5274 0.8431 -0.1049
vn -0.1049 0.8431 0.5274
vn -0.2643 0.8796 0.3955
vn -0.3955 0.8796 0.2642
vn -0.5274 0.8431 0.1049
vn -0.1049 0.8431 -0.5274
vn -0.2643 0.8796 -0.3955
vn -0.3955 0.8796 -0.2642
vn -0.5274 0.8431 -0.1049
vn -0.6000 0.8000 0.0000
usemtl None
s off
f 1/1/1 7/2/1 21/3/1
f 16/4/2 12/5/2 23/6/2
f 1/1/3 3/7/3 4/8/3 5/9/3 2/10/3 11/11/3 13/12/3 14/13/3 15/14/3 12/5/3 16/4/3 18/15/3 19/16/3 20/17/3 17/18/3 6/19/3 8/20/3 9/21/3 10/22/3 7/2/3
f 6/19/4 17/18/4 22/23/4
f 21/3/5 25/24/5 28/25/5 27/26/5
f 25/24/6 26/27/6 29/28/6 28/25/6
f 27/26/7 28/25/7 45/29/7 42/30/7
f 28/25/8 29/28/8 30/31/8 45/29/8
f 22/23/9 31/32/9 34/33/9 33/34/9
f 31/32/10 32/35/10 35/36/10 34/33/10
f 33/34/11 34/33/11 29/28/11 26/27/11
f 34/33/12 35/36/12 30/31/12 29/28/12
f 23/6/13 36/37/13 39/38/13 38/39/13
f 36/37/14 37/40/14 40/41/14 39/38/14
f 38/39/15 39/38/15 35/36/15 32/35/15
f 39/38/16 40/41/16 30/31/16 35/36/16
f 24/42/17 41/43/17 44/44/17 43/45/17
f 41/43/18 42/30/18 45/29/18 44/44/18
f 43/45/19 44/44/19 40/41/19 37/40/19
f 44/44/20 45/29/20 30/31/20 40/41/20
f 21/3/21 7/2/21 10/22/21 25/24/21
f 25/24/22 10/22/22 9/21/22 26/27/22
f 26/27/23 9/21/23 8/20/23 33/34/23
f 33/34/24 8/20/24 6/19/24 22/23/24
f 16/4/25 23/6/25 38/39/25 18/15/25
f 18/15/26 38/39/26 32/35/26 19/16/26
f 19/16/27 32/35/27 31/32/27 20/17/27
f 20/17/28 31/32/28 22/23/28 17/18/28
f 1/1/29 21/3/29 27/26/29 3/7/29
f 3/7/30 27/26/30 42/30/30 4/8/30
f 4/8/31 42/30/31 41/43/31 5/9/31
f 5/9/32 41/43/32 24/42/32 2/10/32
f 23/6/33 12/5/33 15/14/33 36/37/33
f 36/37/34 15/14/34 14/13/34 37/40/34
f 37/40/35 14/13/35 13/12/35 43/45/35
f 43/45/36 13/12/36 11/11/36 24/42/36
f 11/11/37 2/10/37 24/42/37
